<?xml version="1.0" encoding="utf-8"?>
<svg version="1.1" xmlns="http://www.w3.org/2000/svg" viewBox="0 0 96 96">
    <path fill="#0084FF"
          d="M50.4,51.6c0,0,0-5.2-1.7-5.2v0H37.3c0.4-5.9,0.5-11.3,0.5-16.1h11.2c0,0,0.4-4.9-1.9-4.9H27.7 c0.8-2.9,1.7-5.8,2.9-8.9c0,0-5.3,0-7.1,4.7c-0.7,1.9-2.9,9.4-6.7,17.1c1.3-0.1,5.5-0.3,8.1-4.9c0.5-1.3,0.5-1.5,1.1-3.2h6.3 c0,2.3-0.3,14.6-0.4,16.1H20.5c-2.6,0-3.4,5.2-3.4,5.2h14.3c-1,10.9-6.1,20.1-15.5,27.4c4.5,1.3,8.9-0.2,11.2-2.2 c0,0,5-4.6,7.8-15.1l11.8,14.2c0,0,1.7-5.9-0.3-8.7c-1.7-2-6.1-7.2-8-9.1l-3.2,2.5c1-3.1,1.5-6,1.7-8.9H50.4z"/>
    <path fill="#0084FF"
          d="M53.2,72.2l5.1,0L60,78l9.2-5.8h10.8V24.6H53.2V72.2z M74.6,29.8v37.3h-6.1l-6.1,3.8l-1.1-3.8l-2.6,0V29.8l0,0 H74.6z"/>
</svg>
