<svg xmlns="http://www.w3.org/2000/svg" viewBox="0 0 65.26 65.21">
    <title>logo</title>
    <defs>
        <linearGradient id="linear-gradient" x1="34.88" y1="30.16" x2="18" y2="0.92"
                        gradientTransform="matrix(-1, 0, 0, 1, 72, 0.03)" gradientUnits="userSpaceOnUse">
            <stop offset="0" stop-color="#0052cc"/>
            <stop offset="0.92" stop-color="#2684ff"/>
        </linearGradient>
    </defs>
    <g>
        <g id="Blue">
            <path d="M45.9,35.09a1.86,1.86,0,0,0,3.16-.34l16-32A1.91,1.91,0,0,0,63.35,0H41.07a1.84,1.84,0,0,0-1.71,1.06C34.56,11,37.47,26.08,45.9,35.09Z"
                  style="fill:url(#linear-gradient)"/>
            <path d="M34.17,64.19a42.19,42.19,0,0,0,2.46-41.65L25.89,1.06A1.91,1.91,0,0,0,24.18,0H1.91A1.91,1.91,0,0,0,.2,2.77L30.92,64.2a1.81,1.81,0,0,0,3.25,0Z"
                  style="fill:#2684ff"/>
        </g>
    </g>
</svg>