<?xml version="1.0" encoding="utf-8"?>
<svg version="1.1" xmlns="http://www.w3.org/2000/svg" viewBox="0 0 1700 1700">
    <style type="text/css">
        .st0{fill:#D9D9D9;}
        .st1{fill:#4352B8;}
        .st2{fill:#617D8B;}
        .st3{fill:#4F8BF5;}
        .st4{fill:#FFFFFF;}
        .st5{opacity:0.2;fill:#FFFFFF;enable-background:new ;}
    </style>
    <path class="st0" d="M1282.7,1349.2c36.5,0,66.4-29.4,66.4-65.4V616.6c0-36-29.9-65.4-66.4-65.4H634.5l260.1,797.9L1282.7,1349.2
	L1282.7,1349.2z"/>
    <polygon class="st1" points="1065.3,1160.7 895.8,1349.2 834.2,1160.7 "/>
    <path class="st2" d="M1286.1,827.7v-39H1098v-63h-61v63H917v39h238.8c-12.8,45-41,87.5-68.5,120.5c-48.8-57.7-49-76.5-49-76.5h-50.7
	c0,0,2.1,28.1,70.5,108.3c-22.1,22.7-39.1,36.2-39.1,36.2l15.6,48.7c0,0,23.5-20.2,53-51.5c29.5,32,67.6,70.5,116.9,116.4l32-32
	c-52.8-47.9-91.5-85.9-119.9-116.4c38.1-45.1,76.8-101.8,85-153.8L1286.1,827.7L1286.1,827.7z"/>
    <path class="st3"
          d="M417.4,350.9c-36.5,0-66.4,29.9-66.4,66.5v677c0,36.5,29.9,66.4,66.4,66.4h648.1L805.3,350.9H417.4z"/>
    <path class="st4" d="M773,728.2h-17.3h-56.8H631V787h81.7c-7.6,37.4-39.5,58.8-81.7,58.8c-49.8,0-90-40.2-90-90s40.2-90,90-90
	c21.5,0,40.8,7.6,56.1,20.1l44.3-44.3c-27-23.5-61.6-38.1-100.4-38.1c-84.5,0-152.3,67.8-152.3,152.3S546.6,908.2,631,908.2
	c76.2,0,145.4-55.4,145.4-152.3C776.5,746.9,775,737.2,773,728.2z"/>
    <path class="st5" d="M885.3,551.3h397.4c36.5,0,66.4,29.4,66.4,65.4v400.2L885.3,551.3z"/>
</svg>
