<?xml version="1.0" encoding="utf-8"?>
<svg version="1.1" xmlns="http://www.w3.org/2000/svg" viewBox="0 0 48 48">
    <path fill="#FBBC05" d="M11,24c0-1.4,0.2-2.8,0.7-4.1l-7.4-5.7C2.8,17.2,2,20.5,2,24s0.8,6.8,2.3,9.7l7.4-5.7C11.2,26.8,11,25.4,11,24z"/>
    <path fill="#EA4335" d="M4.3,14.3l7.4,5.7C13.4,14.7,18.2,11,24,11c3.1,0,5.9,1.1,8.1,2.9l6.4-6.4C34.6,4.1,29.6,2,24,2 C15.3,2,7.8,7,4.3,14.3z"/>
    <path fill="#34A853" d="M24,20v8.5h11.8C34.7,33.9,30.1,37,24,37c-5.8,0-10.6-3.7-12.3-8.9l-7.4,5.7C7.8,41,15.3,46,24,46 c11,0,21-8,21-22c0-1.3-0.2-2.7-0.5-4H24z"/>
    <path fill="#4285F4" d="M24,20v8.5h11.8c-0.6,2.9-2.2,5.1-4.5,6.6l7,5.4c4-3.8,6.7-9.3,6.7-16.5c0-1.3-0.2-2.7-0.5-4H24z"/>
</svg>
